<svg width="292" height="53" viewBox="0 0 292 53" fill="none" xmlns="http://www.w3.org/2000/svg">
<path d="M53.6382 44.021H45.9624V45.4093H53.6382V44.021Z" fill="white"/>
<path d="M53.6382 47.9741H45.9624V49.3624H53.6382V47.9741Z" fill="white"/>
<path d="M13.5185 44.7983H4.59436V46.1867H13.5185V44.7983Z" fill="white"/>
<path d="M13.5185 48.7515H4.59436V50.1398H13.5185V48.7515Z" fill="white"/>
<path d="M54.6301 12.332C52.9814 10.5688 51.7226 10.5272 49.9063 12.1064C47.2565 14.4203 44.6136 16.7342 41.9775 19.0481C40.7769 20.1101 39.4702 20.7314 37.8489 20.6967C34.9107 20.6342 31.969 20.6967 29.0273 20.6967C26.0857 20.6967 23.144 20.6447 20.2057 20.7141C18.4476 20.7557 17.0349 20.0963 15.7351 18.9335C13.1492 16.615 10.529 14.3382 7.90888 12.0578C6.16782 10.5411 5.0151 10.5758 3.37666 12.2071C0.712054 14.8657 0.397365 18.3296 0.609439 21.856C0.883082 26.368 2.0016 30.717 3.56137 34.9097C5.27164 39.4565 7.09479 43.9339 8.94872 48.4217C9.25235 49.0284 9.75757 49.5066 10.3751 49.7718C12.3556 50.6291 14.3874 51.3476 16.4021 52.1146C17.0107 52.357 17.6675 52.4491 18.3181 52.3833C18.9687 52.3175 19.5946 52.0958 20.1442 51.7363C21.0652 51.3756 22.0135 51.0913 22.9798 50.886C25.3194 50.3723 26.8074 50.7922 26.9203 50.3549C27.0331 49.9176 25.5178 49.6018 25.34 48.5952C25.1211 47.3735 26.9305 45.4472 28.9384 45.3361C31.066 45.2146 33.1286 47.1375 32.978 48.4147C32.8481 49.5011 31.1481 49.9766 31.2951 50.4417C31.4114 50.7888 32.4376 50.5042 34.0692 50.7263C35.3514 50.8815 36.6003 51.2472 37.7668 51.8092C39.0769 52.3992 40.3014 52.6075 41.656 52.0556C43.5373 51.2886 45.4836 50.6916 47.3204 49.8274C48.0829 49.415 48.6962 48.767 49.0717 47.9774C49.961 46.1379 50.6315 44.1838 51.4353 42.2991C54.1923 35.8018 56.6687 29.2107 57.2502 22.0434C57.5204 18.5032 57.175 15.0636 54.6301 12.332ZM15.7864 31.6784C16.3209 31.6707 16.8373 31.8749 17.2257 32.2477C17.6141 32.6204 17.8439 33.1322 17.8661 33.6741C17.8598 34.2171 17.6527 34.7378 17.2859 35.1331C16.9191 35.5285 16.4193 35.7696 15.8856 35.8087C15.3526 35.7858 14.8483 35.5578 14.4753 35.1709C14.1023 34.784 13.8886 34.2673 13.8777 33.7262C13.8761 33.2015 14.0734 32.6964 14.4287 32.3152C14.7839 31.934 15.2701 31.706 15.7864 31.6784ZM12.1093 39.7585C11.574 39.7399 11.0662 39.5135 10.6906 39.1259C10.3151 38.7384 10.1005 38.2194 10.0912 37.676C10.0956 37.4079 10.1524 37.1433 10.2581 36.8975C10.3639 36.6517 10.5166 36.4296 10.7074 36.2441C10.8982 36.0585 11.1234 35.9132 11.3699 35.8164C11.6164 35.7196 11.8793 35.6734 12.1435 35.6803C12.3986 35.678 12.6514 35.7296 12.8858 35.8318C13.1202 35.934 13.3311 36.0845 13.5051 36.2738C13.6791 36.4631 13.8124 36.6871 13.8966 36.9314C13.9808 37.1758 14.014 37.4353 13.994 37.6933C14.0011 38.2175 13.8088 38.7242 13.4572 39.1082C13.1055 39.4921 12.6216 39.7238 12.1059 39.755L12.1093 39.7585ZM15.9335 43.7395C15.3999 43.7202 14.8929 43.4983 14.5129 43.1178C14.1328 42.7373 13.9074 42.2259 13.8812 41.6848C13.8791 41.1635 14.0698 40.6603 14.4155 40.2747C14.7613 39.8892 15.2371 39.6492 15.7488 39.6023C16.0129 39.5888 16.2771 39.6287 16.5259 39.7198C16.7747 39.8109 17.0032 39.9513 17.198 40.1328C17.3928 40.3143 17.5501 40.5334 17.6607 40.7772C17.7713 41.021 17.8329 41.2847 17.8421 41.5529C17.8573 42.0954 17.668 42.6234 17.3126 43.0291C16.9573 43.4348 16.4628 43.6877 15.9301 43.7361L15.9335 43.7395ZM19.5353 39.7758C19.0213 39.7244 18.5454 39.4783 18.2024 39.0865C17.8594 38.6947 17.6746 38.1861 17.6848 37.6621C17.6899 37.392 17.7487 37.1256 17.8577 36.8791C17.9667 36.6326 18.1236 36.4109 18.3191 36.2274C18.5146 36.044 18.7446 35.9025 18.9954 35.8114C19.2461 35.7204 19.5123 35.6817 19.7782 35.6976C20.0355 35.7046 20.2887 35.7651 20.5221 35.8752C20.7556 35.9853 20.9643 36.1428 21.1354 36.3379C21.3066 36.5331 21.4365 36.7617 21.5172 37.0097C21.5979 37.2578 21.6277 37.52 21.6047 37.7801C21.5981 38.0491 21.5393 38.314 21.4317 38.5599C21.324 38.8058 21.1697 39.0277 20.9775 39.2131C20.7854 39.3984 20.5591 39.5435 20.3116 39.6401C20.0641 39.7366 19.8004 39.7828 19.5353 39.7758ZM48.2029 38.988C48.2051 39.1434 48.1772 39.2978 48.1207 39.4422C48.0641 39.5867 47.9801 39.7185 47.8734 39.83C47.7667 39.9415 47.6393 40.0306 47.4987 40.0922C47.358 40.1538 47.2068 40.1866 47.0536 40.1889H44.2316C44.1772 40.1889 44.125 40.2108 44.0865 40.2499C44.048 40.2889 44.0264 40.3419 44.0264 40.3971V43.3577C44.0287 43.5132 44.0007 43.6675 43.9442 43.812C43.8877 43.9565 43.8036 44.0882 43.6969 44.1998C43.5902 44.3113 43.4628 44.4004 43.3222 44.4619C43.1815 44.5235 43.0303 44.5564 42.8771 44.5586H40.4827C40.3295 44.5564 40.1783 44.5235 40.0376 44.4619C39.897 44.4004 39.7696 44.3113 39.6629 44.1998C39.5562 44.0882 39.4722 43.9565 39.4156 43.812C39.3591 43.6675 39.3312 43.5132 39.3334 43.3577V40.3971C39.3334 40.3419 39.3118 40.2889 39.2733 40.2499C39.2348 40.2108 39.1826 40.1889 39.1282 40.1889H36.3062C36.1531 40.1866 36.0018 40.1538 35.8612 40.0922C35.7205 40.0306 35.5932 39.9415 35.4864 39.83C35.3797 39.7185 35.2957 39.5867 35.2391 39.4422C35.1826 39.2978 35.1547 39.1434 35.1569 38.988V36.482C35.1547 36.3266 35.1826 36.1722 35.2391 36.0278C35.2957 35.8833 35.3797 35.7515 35.4864 35.64C35.5932 35.5285 35.7205 35.4394 35.8612 35.3778C36.0018 35.3162 36.1531 35.2834 36.3062 35.2811H39.1282C39.1826 35.2811 39.2348 35.2592 39.2733 35.2201C39.3118 35.1811 39.3334 35.1281 39.3334 35.0729V32.1123C39.3312 31.9568 39.3591 31.8025 39.4156 31.658C39.4722 31.5135 39.5562 31.3818 39.6629 31.2702C39.7696 31.1587 39.897 31.0696 40.0376 31.0081C40.1783 30.9465 40.3295 30.9136 40.4827 30.9114H42.8771C43.0303 30.9136 43.1815 30.9465 43.3222 31.0081C43.4628 31.0696 43.5902 31.1587 43.6969 31.2702C43.8036 31.3818 43.8877 31.5135 43.9442 31.658C44.0007 31.8025 44.0287 31.9568 44.0264 32.1123V35.0729C44.0264 35.1281 44.048 35.1811 44.0865 35.2201C44.125 35.2592 44.1772 35.2811 44.2316 35.2811H47.0536C47.2068 35.2834 47.358 35.3162 47.4987 35.3778C47.6393 35.4394 47.7667 35.5285 47.8734 35.64C47.9801 35.7515 48.0641 35.8833 48.1207 36.0278C48.1772 36.1722 48.2051 36.3266 48.2029 36.482V38.988Z" fill="white"/>
<path d="M71.9895 21.4326C75.0303 21.4326 77.2332 22.8522 78.3859 24.5564V21.7519H83.3149V41.5356C83.3149 46.8529 80.0996 51.0735 73.7374 51.0735C68.285 51.0735 64.478 48.2968 63.9888 43.8056H68.8597C69.3488 45.5792 71.1651 46.7488 73.6108 46.7488C76.3028 46.7488 78.3996 45.1904 78.3996 41.5426V38.4917C77.2469 40.1924 75.044 41.7196 72.0032 41.7196C67.0742 41.7196 63.1611 37.6414 63.1611 31.5084C63.1611 25.3755 67.0639 21.4326 71.9895 21.4326ZM73.2482 25.7954C70.6281 25.7954 68.1448 27.7808 68.1448 31.505C68.1448 35.2291 70.6281 37.3464 73.2482 37.3464C75.9402 37.3464 78.3791 35.2882 78.3791 31.5674C78.3791 27.8467 75.9402 25.792 73.2482 25.792V25.7954Z" fill="white"/>
<path d="M95.6801 21.4326C98.7893 21.4326 100.92 22.9216 102.076 24.5564V21.7519H107.005V41.3968H102.076V38.523C100.924 40.2237 98.7209 41.7127 95.6459 41.7127C90.7545 41.7127 86.838 37.6344 86.838 31.5015C86.838 25.3685 90.7511 21.4326 95.6801 21.4326ZM96.9388 25.7954C94.3187 25.7954 91.8354 27.7808 91.8354 31.505C91.8354 35.2292 94.3187 37.3464 96.9388 37.3464C99.6308 37.3464 102.07 35.2882 102.07 31.5674C102.07 27.8467 99.6445 25.792 96.9388 25.792V25.7954Z" fill="white"/>
<path d="M138.868 30.5434C138.868 27.4197 137.157 25.7918 134.568 25.7918C131.979 25.7918 130.234 27.4231 130.234 30.5434V41.3932H125.343V30.5434C125.343 27.4197 123.633 25.7918 121.043 25.7918C118.389 25.7918 116.675 27.4231 116.675 30.5434V41.3932H111.787V21.7518H116.679V24.1258C117.903 22.4945 119.962 21.4672 122.374 21.4672C125.381 21.4672 127.847 22.7792 129.188 25.2261C129.876 24.0677 130.851 23.1118 132.016 22.4526C133.18 21.7934 134.494 21.4537 135.827 21.4672C140.475 21.4672 143.759 24.4452 143.759 29.8701V41.3932H138.868V30.5434Z" fill="white"/>
<path d="M147.874 16.5038C147.874 14.8725 149.133 13.5953 150.881 13.5953C151.269 13.576 151.657 13.637 152.021 13.7745C152.386 13.9119 152.719 14.1231 153 14.3951C153.281 14.667 153.506 14.9942 153.659 15.3567C153.812 15.7192 153.891 16.1094 153.891 16.5038C153.891 16.8982 153.812 17.2885 153.659 17.651C153.506 18.0135 153.281 18.3406 153 18.6126C152.719 18.8846 152.386 19.0957 152.021 19.2332C151.657 19.3707 151.269 19.4316 150.881 19.4124C149.136 19.4089 147.874 18.1351 147.874 16.5038ZM148.397 21.7517H153.289V41.3966H148.397V21.7517Z" fill="white"/>
<path d="M158.642 25.8268H156.425V21.752H158.628V20.7594C158.628 15.9349 161.32 13.7032 166.769 13.8455V18.0278C164.392 17.9584 163.588 18.722 163.588 20.9364V21.752H166.978V25.8268H163.609V41.3935H158.642V25.8268Z" fill="white"/>
<path d="M183.485 21.752H188.691L176.72 50.6882H171.5L175.693 40.9005L167.936 21.752H173.408L178.42 35.4721L183.485 21.752Z" fill="white"/>
<path d="M192.078 25.8267H189.772V21.752H192.078V16.8928H197.007V21.752H201.341V25.8267H197.007V35.3299C197.007 36.6418 197.53 37.211 199.059 37.211H201.33V41.3934H198.252C194.547 41.3934 192.067 39.7968 192.067 35.2951L192.078 25.8267Z" fill="white"/>
<path d="M204.867 15.1538H209.759V24.1988C211.017 22.5328 213.179 21.4672 215.769 21.4672C220.137 21.4672 223.318 24.4452 223.318 29.8701V41.3933H218.426V30.5435C218.426 27.3885 216.716 25.6843 214.127 25.6843C211.472 25.6843 209.759 27.385 209.759 30.5435V41.3933H204.867V15.1538Z" fill="white"/>
<path d="M263.858 30.5437C263.858 27.3888 262.147 25.6846 259.558 25.6846C256.904 25.6846 255.19 27.3853 255.19 30.5437V41.3935H250.299V21.7521H255.19V24.1991C256.449 22.5331 258.546 21.4675 261.025 21.4675C265.534 21.4675 268.749 24.4455 268.749 29.8704V41.3935H263.858V30.5437Z" fill="white"/>
<path d="M273.408 15.1538H278.3V30.0784L284.799 21.7484H291.157L282.63 31.6055L291.226 41.3933H284.857L278.286 33.0251V41.3933H273.408V15.1538Z" fill="white"/>
<path d="M243.649 27.1042C242.151 29.5338 240.954 31.9911 240.756 34.8997C240.667 36.2186 239.729 36.9475 238.402 37.003C237.571 37.0412 236.743 37.003 235.912 37.003C235.081 37.003 234.253 37.0203 233.422 37.003C232.122 36.9752 231.195 36.3088 231.069 35.0559C230.771 32.0258 229.526 29.4401 227.99 26.8682C225.681 23.0503 226.755 18.0384 230.207 15.2131C233.535 12.4851 238.484 12.5337 241.686 15.3138C245.154 18.3681 246.044 23.2446 243.649 27.1042Z" fill="white"/>
<path d="M237.8 41.9348H233.931C233.786 41.9348 233.668 42.0545 233.668 42.2021V43.0767C233.668 43.2243 233.786 43.344 233.931 43.344H237.8C237.946 43.344 238.063 43.2243 238.063 43.0767V42.2021C238.063 42.0545 237.946 41.9348 237.8 41.9348Z" fill="white"/>
<path d="M239.952 39.821H231.78C231.635 39.821 231.517 39.9407 231.517 40.0883V40.9629C231.517 41.1105 231.635 41.2302 231.78 41.2302H239.952C240.097 41.2302 240.215 41.1105 240.215 40.9629V40.0883C240.215 39.9407 240.097 39.821 239.952 39.821Z" fill="white"/>
<path d="M239.952 37.7039H231.78C231.635 37.7039 231.517 37.8235 231.517 37.9711V38.8458C231.517 38.9934 231.635 39.113 231.78 39.113H239.952C240.097 39.113 240.215 38.9934 240.215 38.8458V37.9711C240.215 37.8235 240.097 37.7039 239.952 37.7039Z" fill="white"/>
<path d="M251.225 8.15016L244.539 13.8564L245.42 14.9189L252.106 9.21259L251.225 8.15016Z" fill="white"/>
<path d="M220.409 8.15168L219.528 9.21411L226.214 14.9204L227.094 13.858L220.409 8.15168Z" fill="white"/>
<path d="M243.966 2.49277L240.365 10.5693L241.612 11.1415L245.212 3.06497L243.966 2.49277Z" fill="white"/>
<path d="M236.518 0.563058L235.15 0.572266L235.208 9.43656L236.576 9.42736L236.518 0.563058Z" fill="white"/>
<path d="M227.854 2.48637L226.607 3.05835L230.206 11.1356L231.453 10.5636L227.854 2.48637Z" fill="white"/>
</svg>
